<?xml version="1.0" standalone="no"?>
<!DOCTYPE svg PUBLIC "-//W3C//DTD SVG 20010904//EN"
 "http://www.w3.org/TR/2001/REC-SVG-20010904/DTD/svg10.dtd">
<svg version="1.0" xmlns="http://www.w3.org/2000/svg"
 width="433.000000pt" height="425.000000pt" viewBox="0 0 433.000000 425.000000"
 preserveAspectRatio="xMidYMid meet">

<g transform="translate(0.000000,425.000000) scale(0.100000,-0.100000)"
fill="#000000" stroke="none">
<path d="M1687 4194 c-4 -4 -7 -275 -7 -603 0 -328 -3 -644 -6 -702 l-7 -105
-675 223 c-372 122 -678 220 -681 218 -2 -3 -29 -81 -58 -173 -199 -625 -244
-775 -237 -782 5 -4 296 -103 646 -220 351 -116 638 -213 638 -215 0 -2 -102
-151 -227 -332 -412 -597 -579 -839 -585 -849 -4 -5 28 -33 70 -63 613 -431
745 -522 751 -514 4 4 97 131 207 282 492 678 601 826 610 825 10 -1 32 -31
502 -689 173 -242 322 -448 331 -458 16 -16 38 -2 406 269 215 157 396 292
404 300 17 16 50 -36 -406 632 -189 276 -346 508 -349 515 -3 9 190 79 654
236 l658 223 -67 216 c-166 539 -231 747 -233 749 -2 2 -63 -18 -137 -43 -587
-200 -1163 -394 -1165 -391 -2 1 -8 180 -14 397 -6 217 -15 530 -20 695 -5
165 -10 315 -10 333 l0 32 -493 0 c-272 0 -497 -3 -500 -6z"/>
</g>
</svg>
